<svg width="214" height="27" viewBox="0 0 214 27" fill="none" xmlns="http://www.w3.org/2000/svg">
<path d="M7.138 6.852C9.04467 6.852 10.7173 7.22467 12.156 7.97C13.612 8.71533 14.73 9.78133 15.51 11.168C16.3073 12.5373 16.706 14.132 16.706 15.952C16.706 17.772 16.3073 19.3667 15.51 20.736C14.73 22.088 13.612 23.1367 12.156 23.882C10.7173 24.6273 9.04467 25 7.138 25H0.794V6.852H7.138ZM7.008 21.906C8.91467 21.906 10.388 21.386 11.428 20.346C12.468 19.306 12.988 17.8413 12.988 15.952C12.988 14.0627 12.468 12.5893 11.428 11.532C10.388 10.4573 8.91467 9.92 7.008 9.92H4.434V21.906H7.008ZM18.4947 17.746C18.4947 16.29 18.7807 14.9987 19.3527 13.872C19.9421 12.7453 20.7307 11.8787 21.7187 11.272C22.7241 10.6653 23.8421 10.362 25.0727 10.362C26.1474 10.362 27.0834 10.5787 27.8807 11.012C28.6954 11.4453 29.3454 11.9913 29.8307 12.65V10.596H33.4967V25H29.8307V22.894C29.3627 23.57 28.7127 24.1333 27.8807 24.584C27.0661 25.0173 26.1214 25.234 25.0467 25.234C23.8334 25.234 22.7241 24.922 21.7187 24.298C20.7307 23.674 19.9421 22.7987 19.3527 21.672C18.7807 20.528 18.4947 19.2193 18.4947 17.746ZM29.8307 17.798C29.8307 16.914 29.6574 16.16 29.3107 15.536C28.9641 14.8947 28.4961 14.4093 27.9067 14.08C27.3174 13.7333 26.6847 13.56 26.0087 13.56C25.3327 13.56 24.7087 13.7247 24.1367 14.054C23.5647 14.3833 23.0967 14.8687 22.7327 15.51C22.3861 16.134 22.2127 16.8793 22.2127 17.746C22.2127 18.6127 22.3861 19.3753 22.7327 20.034C23.0967 20.6753 23.5647 21.1693 24.1367 21.516C24.7261 21.8627 25.3501 22.036 26.0087 22.036C26.6847 22.036 27.3174 21.8713 27.9067 21.542C28.4961 21.1953 28.9641 20.71 29.3107 20.086C29.6574 19.4447 29.8307 18.682 29.8307 17.798ZM41.2898 13.586V20.554C41.2898 21.0393 41.4025 21.3947 41.6278 21.62C41.8705 21.828 42.2691 21.932 42.8238 21.932H44.5138V25H42.2258C39.1578 25 37.6238 23.5093 37.6238 20.528V13.586H35.9078V10.596H37.6238V7.034H41.2898V10.596H44.5138V13.586H41.2898ZM46.1959 17.746C46.1959 16.29 46.4819 14.9987 47.0539 13.872C47.6432 12.7453 48.4319 11.8787 49.4199 11.272C50.4252 10.6653 51.5432 10.362 52.7739 10.362C53.8486 10.362 54.7846 10.5787 55.5819 11.012C56.3966 11.4453 57.0466 11.9913 57.5319 12.65V10.596H61.1979V25H57.5319V22.894C57.0639 23.57 56.4139 24.1333 55.5819 24.584C54.7672 25.0173 53.8226 25.234 52.7479 25.234C51.5346 25.234 50.4252 24.922 49.4199 24.298C48.4319 23.674 47.6432 22.7987 47.0539 21.672C46.4819 20.528 46.1959 19.2193 46.1959 17.746ZM57.5319 17.798C57.5319 16.914 57.3586 16.16 57.0119 15.536C56.6652 14.8947 56.1972 14.4093 55.6079 14.08C55.0186 13.7333 54.3859 13.56 53.7099 13.56C53.0339 13.56 52.4099 13.7247 51.8379 14.054C51.2659 14.3833 50.7979 14.8687 50.4339 15.51C50.0872 16.134 49.9139 16.8793 49.9139 17.746C49.9139 18.6127 50.0872 19.3753 50.4339 20.034C50.7979 20.6753 51.2659 21.1693 51.8379 21.516C52.4272 21.8627 53.0512 22.036 53.7099 22.036C54.3859 22.036 55.0186 21.8713 55.6079 21.542C56.1972 21.1953 56.6652 20.71 57.0119 20.086C57.3586 19.4447 57.5319 18.682 57.5319 17.798ZM77.2143 25.182C75.949 25.182 74.805 24.9653 73.7823 24.532C72.777 24.0987 71.9796 23.4747 71.3903 22.66C70.801 21.8453 70.4976 20.8833 70.4803 19.774H74.3803C74.4323 20.5193 74.6923 21.1087 75.1603 21.542C75.6456 21.9753 76.3043 22.192 77.1363 22.192C77.9856 22.192 78.653 21.9927 79.1383 21.594C79.6236 21.178 79.8663 20.6407 79.8663 19.982C79.8663 19.4447 79.7016 19.0027 79.3723 18.656C79.043 18.3093 78.627 18.0407 78.1243 17.85C77.639 17.642 76.963 17.4167 76.0963 17.174C74.9176 16.8273 73.9556 16.4893 73.2103 16.16C72.4823 15.8133 71.8496 15.302 71.3123 14.626C70.7923 13.9327 70.5323 13.014 70.5323 11.87C70.5323 10.7953 70.801 9.85933 71.3383 9.062C71.8756 8.26467 72.6296 7.658 73.6003 7.242C74.571 6.80867 75.6803 6.592 76.9283 6.592C78.8003 6.592 80.317 7.05133 81.4783 7.97C82.657 8.87133 83.307 10.1367 83.4283 11.766H79.4243C79.3896 11.142 79.121 10.6307 78.6183 10.232C78.133 9.816 77.483 9.608 76.6683 9.608C75.9576 9.608 75.3856 9.79 74.9523 10.154C74.5363 10.518 74.3283 11.0467 74.3283 11.74C74.3283 12.2253 74.4843 12.6327 74.7963 12.962C75.1256 13.274 75.5243 13.534 75.9923 13.742C76.4776 13.9327 77.1536 14.158 78.0203 14.418C79.199 14.7647 80.161 15.1113 80.9063 15.458C81.6516 15.8047 82.293 16.3247 82.8303 17.018C83.3676 17.7113 83.6363 18.6213 83.6363 19.748C83.6363 20.7187 83.385 21.62 82.8823 22.452C82.3796 23.284 81.643 23.9513 80.6723 24.454C79.7016 24.9393 78.549 25.182 77.2143 25.182ZM93.188 25.234C91.8014 25.234 90.5534 24.9307 89.444 24.324C88.3347 23.7 87.4594 22.8247 86.818 21.698C86.194 20.5713 85.882 19.2713 85.882 17.798C85.882 16.3247 86.2027 15.0247 86.844 13.898C87.5027 12.7713 88.3954 11.9047 89.522 11.298C90.6487 10.674 91.9054 10.362 93.292 10.362C94.6787 10.362 95.9354 10.674 97.062 11.298C98.1887 11.9047 99.0727 12.7713 99.714 13.898C100.373 15.0247 100.702 16.3247 100.702 17.798C100.702 19.2713 100.364 20.5713 99.688 21.698C99.0294 22.8247 98.128 23.7 96.984 24.324C95.8574 24.9307 94.592 25.234 93.188 25.234ZM93.188 22.062C93.8467 22.062 94.462 21.906 95.034 21.594C95.6234 21.2647 96.0914 20.7793 96.438 20.138C96.7847 19.4967 96.958 18.7167 96.958 17.798C96.958 16.4287 96.594 15.38 95.866 14.652C95.1554 13.9067 94.28 13.534 93.24 13.534C92.2 13.534 91.3247 13.9067 90.614 14.652C89.9207 15.38 89.574 16.4287 89.574 17.798C89.574 19.1673 89.912 20.2247 90.588 20.97C91.2814 21.698 92.148 22.062 93.188 22.062ZM107.012 12.832C107.48 12.0693 108.087 11.4713 108.832 11.038C109.595 10.6047 110.461 10.388 111.432 10.388V14.21H110.47C109.326 14.21 108.459 14.4787 107.87 15.016C107.298 15.5533 107.012 16.4893 107.012 17.824V25H103.372V10.596H107.012V12.832ZM112.948 17.798C112.948 16.3073 113.251 15.0073 113.858 13.898C114.465 12.7713 115.305 11.9047 116.38 11.298C117.455 10.674 118.685 10.362 120.072 10.362C121.857 10.362 123.331 10.8127 124.492 11.714C125.671 12.598 126.459 13.846 126.858 15.458H122.932C122.724 14.834 122.369 14.3487 121.866 14.002C121.381 13.638 120.774 13.456 120.046 13.456C119.006 13.456 118.183 13.8373 117.576 14.6C116.969 15.3453 116.666 16.4113 116.666 17.798C116.666 19.1673 116.969 20.2333 117.576 20.996C118.183 21.7413 119.006 22.114 120.046 22.114C121.519 22.114 122.481 21.4553 122.932 20.138H126.858C126.459 21.698 125.671 22.9373 124.492 23.856C123.313 24.7747 121.84 25.234 120.072 25.234C118.685 25.234 117.455 24.9307 116.38 24.324C115.305 23.7 114.465 22.8333 113.858 21.724C113.251 20.5973 112.948 19.2887 112.948 17.798ZM142.914 17.486C142.914 18.006 142.88 18.474 142.81 18.89H132.28C132.367 19.93 132.731 20.7447 133.372 21.334C134.014 21.9233 134.802 22.218 135.738 22.218C137.09 22.218 138.052 21.6373 138.624 20.476H142.55C142.134 21.8627 141.337 23.0067 140.158 23.908C138.98 24.792 137.532 25.234 135.816 25.234C134.43 25.234 133.182 24.9307 132.072 24.324C130.98 23.7 130.122 22.8247 129.498 21.698C128.892 20.5713 128.588 19.2713 128.588 17.798C128.588 16.3073 128.892 14.9987 129.498 13.872C130.105 12.7453 130.954 11.8787 132.046 11.272C133.138 10.6653 134.395 10.362 135.816 10.362C137.186 10.362 138.408 10.6567 139.482 11.246C140.574 11.8353 141.415 12.676 142.004 13.768C142.611 14.8427 142.914 16.082 142.914 17.486ZM139.144 16.446C139.127 15.51 138.789 14.7647 138.13 14.21C137.472 13.638 136.666 13.352 135.712 13.352C134.811 13.352 134.048 13.6293 133.424 14.184C132.818 14.7213 132.445 15.4753 132.306 16.446H139.144ZM149.211 12.832C149.679 12.0693 150.286 11.4713 151.031 11.038C151.794 10.6047 152.661 10.388 153.631 10.388V14.21H152.669C151.525 14.21 150.659 14.4787 150.069 15.016C149.497 15.5533 149.211 16.4893 149.211 17.824V25H145.571V10.596H149.211V12.832ZM169.473 17.486C169.473 18.006 169.438 18.474 169.369 18.89H158.839C158.926 19.93 159.29 20.7447 159.931 21.334C160.572 21.9233 161.361 22.218 162.297 22.218C163.649 22.218 164.611 21.6373 165.183 20.476H169.109C168.693 21.8627 167.896 23.0067 166.717 23.908C165.538 24.792 164.091 25.234 162.375 25.234C160.988 25.234 159.74 24.9307 158.631 24.324C157.539 23.7 156.681 22.8247 156.057 21.698C155.45 20.5713 155.147 19.2713 155.147 17.798C155.147 16.3073 155.45 14.9987 156.057 13.872C156.664 12.7453 157.513 11.8787 158.605 11.272C159.697 10.6653 160.954 10.362 162.375 10.362C163.744 10.362 164.966 10.6567 166.041 11.246C167.133 11.8353 167.974 12.676 168.563 13.768C169.17 14.8427 169.473 16.082 169.473 17.486ZM165.703 16.446C165.686 15.51 165.348 14.7647 164.689 14.21C164.03 13.638 163.224 13.352 162.271 13.352C161.37 13.352 160.607 13.6293 159.983 14.184C159.376 14.7213 159.004 15.4753 158.865 16.446H165.703ZM175.77 12.832C176.238 12.0693 176.845 11.4713 177.59 11.038C178.353 10.6047 179.219 10.388 180.19 10.388V14.21H179.228C178.084 14.21 177.217 14.4787 176.628 15.016C176.056 15.5533 175.77 16.4893 175.77 17.824V25H172.13V10.596H175.77V12.832ZM187.043 26.82H213.043V0.82H187.043V26.82Z" fill="url(#paint0_linear_13_63)"/>
<defs>
<linearGradient id="paint0_linear_13_63" x1="-1" y1="15.5" x2="195.504" y2="25.6258" gradientUnits="userSpaceOnUse">
<stop stop-color="#4FC3F7"/>
<stop offset="1" stop-color="white"/>
</linearGradient>
</defs>
</svg>
